<mxfile host="app.diagrams.net" agent="Mozilla/5.0 (Macintosh; Intel Mac OS X 10_15_7) AppleWebKit/605.1.15 (KHTML, like Gecko) Version/16.6 Safari/605.1.15" version="28.1.2">
  <diagram name="Page-1" id="4kCjh9b5u6-mw9tkwEQL">
    <mxGraphModel dx="800" dy="1151" grid="1" gridSize="10" guides="1" tooltips="1" connect="1" arrows="1" fold="1" page="1" pageScale="1" pageWidth="827" pageHeight="1169" math="0" shadow="0">
      <root>
        <mxCell id="0" />
        <mxCell id="1" parent="0" />
        <mxCell id="Ur4TqzQzxlPNd2tIv7cX-1" value="" style="ellipse;whiteSpace=wrap;html=1;aspect=fixed;fontSize=14;" vertex="1" parent="1">
          <mxGeometry x="321" y="197" width="11" height="11" as="geometry" />
        </mxCell>
        <mxCell id="Ur4TqzQzxlPNd2tIv7cX-2" value="" style="endArrow=none;html=1;rounded=0;exitX=1;exitY=0;exitDx=0;exitDy=0;fontSize=14;" edge="1" parent="1" source="Ur4TqzQzxlPNd2tIv7cX-4">
          <mxGeometry width="50" height="50" relative="1" as="geometry">
            <mxPoint x="213.24264068712102" y="268.7573593128791" as="sourcePoint" />
            <mxPoint x="320" y="203" as="targetPoint" />
          </mxGeometry>
        </mxCell>
        <mxCell id="Ur4TqzQzxlPNd2tIv7cX-3" value="" style="endArrow=none;html=1;rounded=0;entryX=1;entryY=0;entryDx=0;entryDy=0;fontSize=14;" edge="1" parent="1">
          <mxGeometry width="50" height="50" relative="1" as="geometry">
            <mxPoint x="452" y="266" as="sourcePoint" />
            <mxPoint x="332.3890872965279" y="202.6109127034722" as="targetPoint" />
          </mxGeometry>
        </mxCell>
        <mxCell id="Ur4TqzQzxlPNd2tIv7cX-4" value="" style="ellipse;whiteSpace=wrap;html=1;aspect=fixed;fontSize=14;" vertex="1" parent="1">
          <mxGeometry x="193" y="263" width="12" height="12" as="geometry" />
        </mxCell>
        <mxCell id="Ur4TqzQzxlPNd2tIv7cX-6" value="" style="endArrow=none;html=1;rounded=0;exitX=1;exitY=0;exitDx=0;exitDy=0;fontSize=14;" edge="1" parent="1" source="Ur4TqzQzxlPNd2tIv7cX-13">
          <mxGeometry width="50" height="50" relative="1" as="geometry">
            <mxPoint x="140" y="320" as="sourcePoint" />
            <mxPoint x="196" y="274" as="targetPoint" />
          </mxGeometry>
        </mxCell>
        <mxCell id="Ur4TqzQzxlPNd2tIv7cX-9" value="" style="endArrow=none;html=1;rounded=0;exitX=0;exitY=0;exitDx=0;exitDy=0;fontSize=14;" edge="1" parent="1" source="Ur4TqzQzxlPNd2tIv7cX-68">
          <mxGeometry width="50" height="50" relative="1" as="geometry">
            <mxPoint x="260" y="323" as="sourcePoint" />
            <mxPoint x="205" y="273" as="targetPoint" />
          </mxGeometry>
        </mxCell>
        <mxCell id="Ur4TqzQzxlPNd2tIv7cX-14" value="" style="endArrow=none;html=1;rounded=0;fontSize=14;" edge="1" parent="1" target="Ur4TqzQzxlPNd2tIv7cX-13">
          <mxGeometry width="50" height="50" relative="1" as="geometry">
            <mxPoint x="136" y="331" as="sourcePoint" />
            <mxPoint x="186" y="281" as="targetPoint" />
          </mxGeometry>
        </mxCell>
        <mxCell id="Ur4TqzQzxlPNd2tIv7cX-13" value="" style="ellipse;whiteSpace=wrap;html=1;aspect=fixed;fontSize=14;" vertex="1" parent="1">
          <mxGeometry x="130" y="327" width="12" height="12" as="geometry" />
        </mxCell>
        <mxCell id="Ur4TqzQzxlPNd2tIv7cX-21" value="" style="endArrow=none;html=1;rounded=0;fontSize=14;" edge="1" parent="1">
          <mxGeometry width="50" height="50" relative="1" as="geometry">
            <mxPoint x="92" y="387" as="sourcePoint" />
            <mxPoint x="133" y="338" as="targetPoint" />
          </mxGeometry>
        </mxCell>
        <mxCell id="Ur4TqzQzxlPNd2tIv7cX-22" value="" style="endArrow=none;html=1;rounded=0;fontSize=14;" edge="1" parent="1">
          <mxGeometry width="50" height="50" relative="1" as="geometry">
            <mxPoint x="72" y="446" as="sourcePoint" />
            <mxPoint x="92" y="386" as="targetPoint" />
          </mxGeometry>
        </mxCell>
        <mxCell id="Ur4TqzQzxlPNd2tIv7cX-23" value="" style="endArrow=none;html=1;rounded=0;fontSize=14;" edge="1" parent="1">
          <mxGeometry width="50" height="50" relative="1" as="geometry">
            <mxPoint x="111" y="457" as="sourcePoint" />
            <mxPoint x="92" y="387" as="targetPoint" />
          </mxGeometry>
        </mxCell>
        <mxCell id="Ur4TqzQzxlPNd2tIv7cX-24" value="" style="endArrow=none;html=1;rounded=0;exitX=1;exitY=1;exitDx=0;exitDy=0;fontSize=14;" edge="1" parent="1" source="Ur4TqzQzxlPNd2tIv7cX-13">
          <mxGeometry width="50" height="50" relative="1" as="geometry">
            <mxPoint x="170" y="337" as="sourcePoint" />
            <mxPoint x="162" y="437" as="targetPoint" />
          </mxGeometry>
        </mxCell>
        <mxCell id="Ur4TqzQzxlPNd2tIv7cX-25" value="" style="endArrow=none;html=1;rounded=0;fontSize=14;" edge="1" parent="1">
          <mxGeometry width="50" height="50" relative="1" as="geometry">
            <mxPoint x="142" y="517" as="sourcePoint" />
            <mxPoint x="162" y="437" as="targetPoint" />
          </mxGeometry>
        </mxCell>
        <mxCell id="Ur4TqzQzxlPNd2tIv7cX-26" value="" style="endArrow=none;html=1;rounded=0;fontSize=14;" edge="1" parent="1">
          <mxGeometry width="50" height="50" relative="1" as="geometry">
            <mxPoint x="162" y="437" as="sourcePoint" />
            <mxPoint x="192" y="517" as="targetPoint" />
          </mxGeometry>
        </mxCell>
        <mxCell id="Ur4TqzQzxlPNd2tIv7cX-68" value="" style="ellipse;whiteSpace=wrap;html=1;aspect=fixed;fontSize=14;" vertex="1" parent="1">
          <mxGeometry x="258" y="328" width="12" height="12" as="geometry" />
        </mxCell>
        <mxCell id="Ur4TqzQzxlPNd2tIv7cX-69" value="" style="endArrow=none;html=1;rounded=0;fontSize=14;" edge="1" parent="1">
          <mxGeometry width="50" height="50" relative="1" as="geometry">
            <mxPoint x="219" y="387" as="sourcePoint" />
            <mxPoint x="260" y="338" as="targetPoint" />
          </mxGeometry>
        </mxCell>
        <mxCell id="Ur4TqzQzxlPNd2tIv7cX-70" value="" style="endArrow=none;html=1;rounded=0;fontSize=14;" edge="1" parent="1">
          <mxGeometry width="50" height="50" relative="1" as="geometry">
            <mxPoint x="199" y="446" as="sourcePoint" />
            <mxPoint x="219" y="386" as="targetPoint" />
          </mxGeometry>
        </mxCell>
        <mxCell id="Ur4TqzQzxlPNd2tIv7cX-71" value="" style="endArrow=none;html=1;rounded=0;fontSize=14;" edge="1" parent="1">
          <mxGeometry width="50" height="50" relative="1" as="geometry">
            <mxPoint x="238" y="457" as="sourcePoint" />
            <mxPoint x="219" y="387" as="targetPoint" />
          </mxGeometry>
        </mxCell>
        <mxCell id="Ur4TqzQzxlPNd2tIv7cX-72" value="" style="endArrow=none;html=1;rounded=0;fontSize=14;" edge="1" parent="1">
          <mxGeometry width="50" height="50" relative="1" as="geometry">
            <mxPoint x="269" y="338" as="sourcePoint" />
            <mxPoint x="291" y="438" as="targetPoint" />
          </mxGeometry>
        </mxCell>
        <mxCell id="Ur4TqzQzxlPNd2tIv7cX-73" value="" style="endArrow=none;html=1;rounded=0;fontSize=14;" edge="1" parent="1">
          <mxGeometry width="50" height="50" relative="1" as="geometry">
            <mxPoint x="271" y="517" as="sourcePoint" />
            <mxPoint x="291" y="437" as="targetPoint" />
          </mxGeometry>
        </mxCell>
        <mxCell id="Ur4TqzQzxlPNd2tIv7cX-74" value="" style="endArrow=none;html=1;rounded=0;fontSize=14;" edge="1" parent="1">
          <mxGeometry width="50" height="50" relative="1" as="geometry">
            <mxPoint x="291" y="437" as="sourcePoint" />
            <mxPoint x="321" y="517" as="targetPoint" />
          </mxGeometry>
        </mxCell>
        <mxCell id="Ur4TqzQzxlPNd2tIv7cX-94" value="" style="ellipse;whiteSpace=wrap;html=1;aspect=fixed;fontSize=14;" vertex="1" parent="1">
          <mxGeometry x="451" y="263" width="12" height="12" as="geometry" />
        </mxCell>
        <mxCell id="Ur4TqzQzxlPNd2tIv7cX-95" value="" style="endArrow=none;html=1;rounded=0;exitX=1;exitY=0;exitDx=0;exitDy=0;fontSize=14;" edge="1" parent="1" source="Ur4TqzQzxlPNd2tIv7cX-98">
          <mxGeometry width="50" height="50" relative="1" as="geometry">
            <mxPoint x="398" y="326" as="sourcePoint" />
            <mxPoint x="454" y="274" as="targetPoint" />
          </mxGeometry>
        </mxCell>
        <mxCell id="Ur4TqzQzxlPNd2tIv7cX-96" value="" style="endArrow=none;html=1;rounded=0;exitX=0;exitY=0;exitDx=0;exitDy=0;fontSize=14;" edge="1" parent="1" source="Ur4TqzQzxlPNd2tIv7cX-105">
          <mxGeometry width="50" height="50" relative="1" as="geometry">
            <mxPoint x="518" y="323" as="sourcePoint" />
            <mxPoint x="463" y="273" as="targetPoint" />
          </mxGeometry>
        </mxCell>
        <mxCell id="Ur4TqzQzxlPNd2tIv7cX-97" value="" style="endArrow=none;html=1;rounded=0;fontSize=14;" edge="1" parent="1" target="Ur4TqzQzxlPNd2tIv7cX-98">
          <mxGeometry width="50" height="50" relative="1" as="geometry">
            <mxPoint x="394" y="331" as="sourcePoint" />
            <mxPoint x="444" y="281" as="targetPoint" />
          </mxGeometry>
        </mxCell>
        <mxCell id="Ur4TqzQzxlPNd2tIv7cX-98" value="" style="ellipse;whiteSpace=wrap;html=1;aspect=fixed;fontSize=14;" vertex="1" parent="1">
          <mxGeometry x="388" y="327" width="12" height="12" as="geometry" />
        </mxCell>
        <mxCell id="Ur4TqzQzxlPNd2tIv7cX-99" value="" style="endArrow=none;html=1;rounded=0;fontSize=14;" edge="1" parent="1">
          <mxGeometry width="50" height="50" relative="1" as="geometry">
            <mxPoint x="350" y="387" as="sourcePoint" />
            <mxPoint x="391" y="338" as="targetPoint" />
          </mxGeometry>
        </mxCell>
        <mxCell id="Ur4TqzQzxlPNd2tIv7cX-100" value="" style="endArrow=none;html=1;rounded=0;fontSize=14;" edge="1" parent="1">
          <mxGeometry width="50" height="50" relative="1" as="geometry">
            <mxPoint x="330" y="446" as="sourcePoint" />
            <mxPoint x="350" y="386" as="targetPoint" />
          </mxGeometry>
        </mxCell>
        <mxCell id="Ur4TqzQzxlPNd2tIv7cX-101" value="" style="endArrow=none;html=1;rounded=0;fontSize=14;" edge="1" parent="1">
          <mxGeometry width="50" height="50" relative="1" as="geometry">
            <mxPoint x="369" y="457" as="sourcePoint" />
            <mxPoint x="350" y="387" as="targetPoint" />
          </mxGeometry>
        </mxCell>
        <mxCell id="Ur4TqzQzxlPNd2tIv7cX-102" value="" style="endArrow=none;html=1;rounded=0;exitX=1;exitY=1;exitDx=0;exitDy=0;fontSize=14;" edge="1" parent="1" source="Ur4TqzQzxlPNd2tIv7cX-98">
          <mxGeometry width="50" height="50" relative="1" as="geometry">
            <mxPoint x="428" y="337" as="sourcePoint" />
            <mxPoint x="420" y="437" as="targetPoint" />
          </mxGeometry>
        </mxCell>
        <mxCell id="Ur4TqzQzxlPNd2tIv7cX-103" value="" style="endArrow=none;html=1;rounded=0;fontSize=14;" edge="1" parent="1">
          <mxGeometry width="50" height="50" relative="1" as="geometry">
            <mxPoint x="400" y="517" as="sourcePoint" />
            <mxPoint x="420" y="437" as="targetPoint" />
          </mxGeometry>
        </mxCell>
        <mxCell id="Ur4TqzQzxlPNd2tIv7cX-104" value="" style="endArrow=none;html=1;rounded=0;fontSize=14;" edge="1" parent="1">
          <mxGeometry width="50" height="50" relative="1" as="geometry">
            <mxPoint x="420" y="437" as="sourcePoint" />
            <mxPoint x="450" y="517" as="targetPoint" />
          </mxGeometry>
        </mxCell>
        <mxCell id="Ur4TqzQzxlPNd2tIv7cX-105" value="" style="ellipse;whiteSpace=wrap;html=1;aspect=fixed;fontSize=14;" vertex="1" parent="1">
          <mxGeometry x="516" y="328" width="12" height="12" as="geometry" />
        </mxCell>
        <mxCell id="Ur4TqzQzxlPNd2tIv7cX-106" value="" style="endArrow=none;html=1;rounded=0;fontSize=14;" edge="1" parent="1">
          <mxGeometry width="50" height="50" relative="1" as="geometry">
            <mxPoint x="477" y="387" as="sourcePoint" />
            <mxPoint x="518" y="338" as="targetPoint" />
          </mxGeometry>
        </mxCell>
        <mxCell id="Ur4TqzQzxlPNd2tIv7cX-107" value="" style="endArrow=none;html=1;rounded=0;fontSize=14;" edge="1" parent="1">
          <mxGeometry width="50" height="50" relative="1" as="geometry">
            <mxPoint x="457" y="446" as="sourcePoint" />
            <mxPoint x="477" y="386" as="targetPoint" />
          </mxGeometry>
        </mxCell>
        <mxCell id="Ur4TqzQzxlPNd2tIv7cX-108" value="" style="endArrow=none;html=1;rounded=0;fontSize=14;" edge="1" parent="1">
          <mxGeometry width="50" height="50" relative="1" as="geometry">
            <mxPoint x="496" y="457" as="sourcePoint" />
            <mxPoint x="477" y="387" as="targetPoint" />
          </mxGeometry>
        </mxCell>
        <mxCell id="Ur4TqzQzxlPNd2tIv7cX-109" value="" style="endArrow=none;html=1;rounded=0;fontSize=14;" edge="1" parent="1">
          <mxGeometry width="50" height="50" relative="1" as="geometry">
            <mxPoint x="527" y="338" as="sourcePoint" />
            <mxPoint x="549" y="438" as="targetPoint" />
          </mxGeometry>
        </mxCell>
        <mxCell id="Ur4TqzQzxlPNd2tIv7cX-110" value="" style="endArrow=none;html=1;rounded=0;fontSize=14;" edge="1" parent="1">
          <mxGeometry width="50" height="50" relative="1" as="geometry">
            <mxPoint x="529" y="517" as="sourcePoint" />
            <mxPoint x="549" y="437" as="targetPoint" />
          </mxGeometry>
        </mxCell>
        <mxCell id="Ur4TqzQzxlPNd2tIv7cX-111" value="" style="endArrow=none;html=1;rounded=0;fontSize=14;" edge="1" parent="1">
          <mxGeometry width="50" height="50" relative="1" as="geometry">
            <mxPoint x="549" y="437" as="sourcePoint" />
            <mxPoint x="579" y="517" as="targetPoint" />
          </mxGeometry>
        </mxCell>
        <mxCell id="Ur4TqzQzxlPNd2tIv7cX-112" value="Nature" style="text;html=1;align=center;verticalAlign=middle;whiteSpace=wrap;rounded=0;fontSize=14;" vertex="1" parent="1">
          <mxGeometry x="296.5" y="166" width="60" height="30" as="geometry" />
        </mxCell>
        <mxCell id="Ur4TqzQzxlPNd2tIv7cX-114" value="&lt;font&gt;O&lt;sub&gt;P&lt;/sub&gt;&lt;/font&gt;" style="text;html=1;align=center;verticalAlign=middle;whiteSpace=wrap;rounded=0;fontSize=14;" vertex="1" parent="1">
          <mxGeometry x="354" y="235" width="60" height="30" as="geometry" />
        </mxCell>
        <mxCell id="Ur4TqzQzxlPNd2tIv7cX-115" value="&lt;span style=&quot;text-align: center;&quot;&gt;&lt;font&gt;O&lt;sub&gt;M&lt;/sub&gt;&lt;/font&gt;&lt;/span&gt;" style="text;whiteSpace=wrap;html=1;fontSize=14;" vertex="1" parent="1">
          <mxGeometry x="259" y="233" width="50" height="40" as="geometry" />
        </mxCell>
        <mxCell id="Ur4TqzQzxlPNd2tIv7cX-117" value="&lt;font&gt;0.82&lt;/font&gt;" style="text;html=1;align=center;verticalAlign=middle;whiteSpace=wrap;rounded=0;fontSize=14;" vertex="1" parent="1">
          <mxGeometry x="214" y="208" width="60" height="30" as="geometry" />
        </mxCell>
        <mxCell id="Ur4TqzQzxlPNd2tIv7cX-118" value="&lt;div style=&quot;text-align: center;&quot;&gt;&lt;font&gt;0.18&lt;/font&gt;&lt;/div&gt;" style="text;whiteSpace=wrap;html=1;fontSize=14;" vertex="1" parent="1">
          <mxGeometry x="396" y="208" width="50" height="40" as="geometry" />
        </mxCell>
        <mxCell id="Ur4TqzQzxlPNd2tIv7cX-120" value="&lt;font&gt;A&lt;/font&gt;" style="text;html=1;align=center;verticalAlign=middle;whiteSpace=wrap;rounded=0;fontSize=14;" vertex="1" parent="1">
          <mxGeometry x="145" y="300" width="60" height="30" as="geometry" />
        </mxCell>
        <mxCell id="Ur4TqzQzxlPNd2tIv7cX-121" value="&lt;font&gt;A&lt;/font&gt;" style="text;html=1;align=center;verticalAlign=middle;whiteSpace=wrap;rounded=0;fontSize=14;" vertex="1" parent="1">
          <mxGeometry x="401" y="303" width="60" height="30" as="geometry" />
        </mxCell>
        <mxCell id="Ur4TqzQzxlPNd2tIv7cX-123" value="&lt;font&gt;U&lt;/font&gt;" style="text;html=1;align=center;verticalAlign=middle;whiteSpace=wrap;rounded=0;fontSize=14;" vertex="1" parent="1">
          <mxGeometry x="193" y="300" width="60" height="30" as="geometry" />
        </mxCell>
        <mxCell id="Ur4TqzQzxlPNd2tIv7cX-127" value="&lt;font&gt;U&lt;/font&gt;" style="text;html=1;align=center;verticalAlign=middle;whiteSpace=wrap;rounded=0;fontSize=14;" vertex="1" parent="1">
          <mxGeometry x="451" y="303" width="60" height="30" as="geometry" />
        </mxCell>
        <mxCell id="Ur4TqzQzxlPNd2tIv7cX-128" value="&lt;font&gt;a&lt;/font&gt;" style="text;html=1;align=center;verticalAlign=middle;whiteSpace=wrap;rounded=0;fontSize=14;" vertex="1" parent="1">
          <mxGeometry x="62" y="337" width="60" height="30" as="geometry" />
        </mxCell>
        <mxCell id="Ur4TqzQzxlPNd2tIv7cX-130" value="&lt;font&gt;a&lt;/font&gt;" style="text;html=1;align=center;verticalAlign=middle;whiteSpace=wrap;rounded=0;fontSize=14;" vertex="1" parent="1">
          <mxGeometry x="193" y="336" width="60" height="30" as="geometry" />
        </mxCell>
        <mxCell id="Ur4TqzQzxlPNd2tIv7cX-131" value="&lt;font&gt;a&lt;/font&gt;" style="text;html=1;align=center;verticalAlign=middle;whiteSpace=wrap;rounded=0;fontSize=14;" vertex="1" parent="1">
          <mxGeometry x="328" y="336" width="60" height="30" as="geometry" />
        </mxCell>
        <mxCell id="Ur4TqzQzxlPNd2tIv7cX-132" value="&lt;font&gt;a&lt;/font&gt;" style="text;html=1;align=center;verticalAlign=middle;whiteSpace=wrap;rounded=0;fontSize=14;" vertex="1" parent="1">
          <mxGeometry x="451" y="336" width="60" height="30" as="geometry" />
        </mxCell>
        <mxCell id="Ur4TqzQzxlPNd2tIv7cX-133" value="&lt;font&gt;u&lt;/font&gt;" style="text;html=1;align=center;verticalAlign=middle;whiteSpace=wrap;rounded=0;fontSize=14;" vertex="1" parent="1">
          <mxGeometry x="128" y="337" width="60" height="30" as="geometry" />
        </mxCell>
        <mxCell id="Ur4TqzQzxlPNd2tIv7cX-134" value="&lt;span style=&quot;caret-color: rgb(0, 0, 0); color: rgb(0, 0, 0); font-family: Helvetica; font-style: normal; font-variant-caps: normal; font-weight: 400; letter-spacing: normal; text-align: center; text-indent: 0px; text-transform: none; white-space: normal; word-spacing: 0px; -webkit-text-stroke-width: 0px; text-decoration: none; float: none; display: inline !important;&quot;&gt;u&lt;/span&gt;" style="text;whiteSpace=wrap;html=1;fontSize=14;" vertex="1" parent="1">
          <mxGeometry x="281" y="335" width="40" height="40" as="geometry" />
        </mxCell>
        <mxCell id="Ur4TqzQzxlPNd2tIv7cX-135" value="&lt;span style=&quot;caret-color: rgb(0, 0, 0); color: rgb(0, 0, 0); font-family: Helvetica; font-style: normal; font-variant-caps: normal; font-weight: 400; letter-spacing: normal; text-align: center; text-indent: 0px; text-transform: none; white-space: normal; word-spacing: 0px; -webkit-text-stroke-width: 0px; text-decoration: none; float: none; display: inline !important;&quot;&gt;u&lt;/span&gt;" style="text;whiteSpace=wrap;html=1;fontSize=14;" vertex="1" parent="1">
          <mxGeometry x="414" y="336" width="40" height="40" as="geometry" />
        </mxCell>
        <mxCell id="Ur4TqzQzxlPNd2tIv7cX-136" value="&lt;span style=&quot;caret-color: rgb(0, 0, 0); color: rgb(0, 0, 0); font-family: Helvetica; font-style: normal; font-variant-caps: normal; font-weight: 400; letter-spacing: normal; text-align: center; text-indent: 0px; text-transform: none; white-space: normal; word-spacing: 0px; -webkit-text-stroke-width: 0px; text-decoration: none; float: none; display: inline !important;&quot;&gt;u&lt;/span&gt;" style="text;whiteSpace=wrap;html=1;fontSize=14;" vertex="1" parent="1">
          <mxGeometry x="550" y="337" width="40" height="40" as="geometry" />
        </mxCell>
        <mxCell id="Ur4TqzQzxlPNd2tIv7cX-137" value="&lt;font&gt;c&lt;/font&gt;" style="text;html=1;align=center;verticalAlign=middle;whiteSpace=wrap;rounded=0;fontSize=14;" vertex="1" parent="1">
          <mxGeometry x="33" y="420" width="60" height="30" as="geometry" />
        </mxCell>
        <mxCell id="Ur4TqzQzxlPNd2tIv7cX-139" value="&lt;font&gt;c&lt;/font&gt;" style="text;html=1;align=center;verticalAlign=middle;whiteSpace=wrap;rounded=0;fontSize=14;" vertex="1" parent="1">
          <mxGeometry x="121" y="420" width="60" height="30" as="geometry" />
        </mxCell>
        <mxCell id="Ur4TqzQzxlPNd2tIv7cX-140" value="&lt;font&gt;c&lt;/font&gt;" style="text;html=1;align=center;verticalAlign=middle;whiteSpace=wrap;rounded=0;fontSize=14;" vertex="1" parent="1">
          <mxGeometry x="163" y="420" width="60" height="30" as="geometry" />
        </mxCell>
        <mxCell id="Ur4TqzQzxlPNd2tIv7cX-142" value="&lt;font&gt;c&lt;/font&gt;" style="text;html=1;align=center;verticalAlign=middle;whiteSpace=wrap;rounded=0;fontSize=14;" vertex="1" parent="1">
          <mxGeometry x="250.5" y="420" width="60" height="30" as="geometry" />
        </mxCell>
        <mxCell id="Ur4TqzQzxlPNd2tIv7cX-145" value="&lt;font&gt;c&lt;/font&gt;" style="text;html=1;align=center;verticalAlign=middle;whiteSpace=wrap;rounded=0;fontSize=14;" vertex="1" parent="1">
          <mxGeometry x="297" y="420" width="60" height="30" as="geometry" />
        </mxCell>
        <mxCell id="Ur4TqzQzxlPNd2tIv7cX-150" value="&lt;font&gt;c&lt;/font&gt;" style="text;html=1;align=center;verticalAlign=middle;whiteSpace=wrap;rounded=0;fontSize=14;" vertex="1" parent="1">
          <mxGeometry x="380" y="420" width="60" height="30" as="geometry" />
        </mxCell>
        <mxCell id="Ur4TqzQzxlPNd2tIv7cX-151" value="&lt;font&gt;c&lt;/font&gt;" style="text;html=1;align=center;verticalAlign=middle;whiteSpace=wrap;rounded=0;fontSize=14;" vertex="1" parent="1">
          <mxGeometry x="423" y="420" width="60" height="30" as="geometry" />
        </mxCell>
        <mxCell id="Ur4TqzQzxlPNd2tIv7cX-152" value="&lt;font&gt;c&lt;/font&gt;" style="text;html=1;align=center;verticalAlign=middle;whiteSpace=wrap;rounded=0;fontSize=14;" vertex="1" parent="1">
          <mxGeometry x="511" y="420" width="60" height="30" as="geometry" />
        </mxCell>
        <mxCell id="Ur4TqzQzxlPNd2tIv7cX-153" value="&lt;font&gt;s&lt;/font&gt;" style="text;html=1;align=center;verticalAlign=middle;whiteSpace=wrap;rounded=0;fontSize=14;" vertex="1" parent="1">
          <mxGeometry x="87" y="420" width="60" height="30" as="geometry" />
        </mxCell>
        <mxCell id="Ur4TqzQzxlPNd2tIv7cX-156" value="&lt;font&gt;s&lt;/font&gt;" style="text;html=1;align=center;verticalAlign=middle;whiteSpace=wrap;rounded=0;fontSize=14;" vertex="1" parent="1">
          <mxGeometry x="210" y="420" width="60" height="30" as="geometry" />
        </mxCell>
        <mxCell id="Ur4TqzQzxlPNd2tIv7cX-157" value="&lt;font&gt;s&lt;/font&gt;" style="text;html=1;align=center;verticalAlign=middle;whiteSpace=wrap;rounded=0;fontSize=14;" vertex="1" parent="1">
          <mxGeometry x="270" y="420" width="60" height="30" as="geometry" />
        </mxCell>
        <mxCell id="Ur4TqzQzxlPNd2tIv7cX-158" value="&lt;font&gt;s&lt;/font&gt;" style="text;html=1;align=center;verticalAlign=middle;whiteSpace=wrap;rounded=0;fontSize=14;" vertex="1" parent="1">
          <mxGeometry x="341" y="420" width="60" height="30" as="geometry" />
        </mxCell>
        <mxCell id="Ur4TqzQzxlPNd2tIv7cX-159" value="&lt;font&gt;s&lt;/font&gt;" style="text;html=1;align=center;verticalAlign=middle;whiteSpace=wrap;rounded=0;fontSize=14;" vertex="1" parent="1">
          <mxGeometry x="400" y="420" width="60" height="30" as="geometry" />
        </mxCell>
        <mxCell id="Ur4TqzQzxlPNd2tIv7cX-160" value="&lt;font&gt;s&lt;/font&gt;" style="text;html=1;align=center;verticalAlign=middle;whiteSpace=wrap;rounded=0;fontSize=14;" vertex="1" parent="1">
          <mxGeometry x="470" y="420" width="60" height="30" as="geometry" />
        </mxCell>
        <mxCell id="Ur4TqzQzxlPNd2tIv7cX-161" value="&lt;font&gt;s&lt;/font&gt;" style="text;html=1;align=center;verticalAlign=middle;whiteSpace=wrap;rounded=0;fontSize=14;" vertex="1" parent="1">
          <mxGeometry x="528" y="420" width="60" height="30" as="geometry" />
        </mxCell>
        <mxCell id="Ur4TqzQzxlPNd2tIv7cX-162" value="&lt;font&gt;9.4 &amp;nbsp; 3&lt;/font&gt;" style="text;html=1;align=center;verticalAlign=middle;whiteSpace=wrap;rounded=0;fontSize=14;" vertex="1" parent="1">
          <mxGeometry x="35" y="447" width="60" height="30" as="geometry" />
        </mxCell>
        <mxCell id="Ur4TqzQzxlPNd2tIv7cX-163" value="&lt;span style=&quot;caret-color: rgb(0, 0, 0); color: rgb(0, 0, 0); font-family: Helvetica; font-style: normal; font-variant-caps: normal; font-weight: 400; letter-spacing: normal; text-align: center; text-indent: 0px; text-transform: none; white-space: normal; word-spacing: 0px; -webkit-text-stroke-width: 0px; text-decoration: none; float: none; display: inline !important;&quot;&gt;9.4 &amp;nbsp; 3&lt;/span&gt;" style="text;whiteSpace=wrap;html=1;fontSize=14;" vertex="1" parent="1">
          <mxGeometry x="116" y="518" width="70" height="40" as="geometry" />
        </mxCell>
        <mxCell id="Ur4TqzQzxlPNd2tIv7cX-164" value="&lt;span&gt;0 &amp;nbsp; 0&lt;/span&gt;" style="text;html=1;align=center;verticalAlign=middle;whiteSpace=wrap;rounded=0;fontSize=14;" vertex="1" parent="1">
          <mxGeometry x="86" y="459" width="60" height="30" as="geometry" />
        </mxCell>
        <mxCell id="Ur4TqzQzxlPNd2tIv7cX-166" value="&lt;span style=&quot;caret-color: rgb(0, 0, 0); color: rgb(0, 0, 0); font-family: Helvetica; font-style: normal; font-variant-caps: normal; font-weight: 400; letter-spacing: normal; text-align: center; text-indent: 0px; text-transform: none; white-space: normal; word-spacing: 0px; -webkit-text-stroke-width: 0px; text-decoration: none; float: none; display: inline !important;&quot;&gt;0 &amp;nbsp; 0&lt;/span&gt;" style="text;whiteSpace=wrap;html=1;fontSize=14;" vertex="1" parent="1">
          <mxGeometry x="180" y="518" width="60" height="40" as="geometry" />
        </mxCell>
        <mxCell id="Ur4TqzQzxlPNd2tIv7cX-167" value="&lt;div style=&quot;text-align: center;&quot;&gt;&lt;span&gt;6 &amp;nbsp; 3&lt;/span&gt;&lt;/div&gt;" style="text;whiteSpace=wrap;html=1;fontSize=14;" vertex="1" parent="1">
          <mxGeometry x="180.5" y="447" width="70" height="40" as="geometry" />
        </mxCell>
        <mxCell id="Ur4TqzQzxlPNd2tIv7cX-168" value="&lt;div style=&quot;text-align: center;&quot;&gt;&lt;span&gt;6 &amp;nbsp; 3&lt;/span&gt;&lt;/div&gt;" style="text;whiteSpace=wrap;html=1;fontSize=14;" vertex="1" parent="1">
          <mxGeometry x="255" y="518" width="70" height="40" as="geometry" />
        </mxCell>
        <mxCell id="Ur4TqzQzxlPNd2tIv7cX-169" value="&lt;div style=&quot;text-align: center;&quot;&gt;&lt;span&gt;- 3.4 &amp;nbsp; 0&lt;/span&gt;&lt;/div&gt;" style="text;whiteSpace=wrap;html=1;fontSize=14;" vertex="1" parent="1">
          <mxGeometry x="214" y="459" width="70" height="40" as="geometry" />
        </mxCell>
        <mxCell id="Ur4TqzQzxlPNd2tIv7cX-170" value="&lt;div style=&quot;text-align: center;&quot;&gt;&lt;span&gt;- 3.4 &amp;nbsp; 0&lt;/span&gt;&lt;/div&gt;" style="text;whiteSpace=wrap;html=1;fontSize=14;" vertex="1" parent="1">
          <mxGeometry x="297" y="518" width="70" height="40" as="geometry" />
        </mxCell>
        <mxCell id="Ur4TqzQzxlPNd2tIv7cX-171" value="&lt;div style=&quot;text-align: center;&quot;&gt;&lt;span&gt;7.9 &amp;nbsp; 0&lt;/span&gt;&lt;/div&gt;" style="text;whiteSpace=wrap;html=1;fontSize=14;" vertex="1" parent="1">
          <mxGeometry x="310.5" y="447" width="70" height="40" as="geometry" />
        </mxCell>
        <mxCell id="Ur4TqzQzxlPNd2tIv7cX-172" value="&lt;div style=&quot;text-align: center;&quot;&gt;&lt;span&gt;7.9 &amp;nbsp; 0&lt;/span&gt;&lt;/div&gt;" style="text;whiteSpace=wrap;html=1;fontSize=14;" vertex="1" parent="1">
          <mxGeometry x="375" y="518" width="70" height="40" as="geometry" />
        </mxCell>
        <mxCell id="Ur4TqzQzxlPNd2tIv7cX-173" value="&lt;div style=&quot;text-align: center;&quot;&gt;&lt;span&gt;1.5 &amp;nbsp; 3&lt;/span&gt;&lt;/div&gt;" style="text;whiteSpace=wrap;html=1;fontSize=14;" vertex="1" parent="1">
          <mxGeometry x="357" y="459" width="70" height="40" as="geometry" />
        </mxCell>
        <mxCell id="Ur4TqzQzxlPNd2tIv7cX-174" value="&lt;div style=&quot;text-align: center;&quot;&gt;&lt;span&gt;1.5 &amp;nbsp; 3&lt;/span&gt;&lt;/div&gt;" style="text;whiteSpace=wrap;html=1;fontSize=14;" vertex="1" parent="1">
          <mxGeometry x="430" y="518" width="70" height="40" as="geometry" />
        </mxCell>
        <mxCell id="Ur4TqzQzxlPNd2tIv7cX-175" value="&lt;div style=&quot;text-align: center;&quot;&gt;&lt;span&gt;9.4 &amp;nbsp; 0&lt;/span&gt;&lt;/div&gt;" style="text;whiteSpace=wrap;html=1;fontSize=14;" vertex="1" parent="1">
          <mxGeometry x="433" y="446" width="70" height="40" as="geometry" />
        </mxCell>
        <mxCell id="Ur4TqzQzxlPNd2tIv7cX-176" value="&lt;div style=&quot;text-align: center;&quot;&gt;&lt;span&gt;9.4 &amp;nbsp; 0&lt;/span&gt;&lt;/div&gt;" style="text;whiteSpace=wrap;html=1;fontSize=14;" vertex="1" parent="1">
          <mxGeometry x="500" y="518" width="70" height="40" as="geometry" />
        </mxCell>
        <mxCell id="Ur4TqzQzxlPNd2tIv7cX-177" value="&lt;div style=&quot;text-align: center;&quot;&gt;&lt;span&gt;0 &amp;nbsp; 3&lt;/span&gt;&lt;/div&gt;" style="text;whiteSpace=wrap;html=1;fontSize=14;" vertex="1" parent="1">
          <mxGeometry x="483" y="459" width="70" height="40" as="geometry" />
        </mxCell>
        <mxCell id="Ur4TqzQzxlPNd2tIv7cX-178" value="&lt;div style=&quot;text-align: center;&quot;&gt;&lt;span&gt;0 &amp;nbsp; 3&lt;/span&gt;&lt;/div&gt;" style="text;whiteSpace=wrap;html=1;fontSize=14;" vertex="1" parent="1">
          <mxGeometry x="571" y="518" width="70" height="40" as="geometry" />
        </mxCell>
        <mxCell id="Ur4TqzQzxlPNd2tIv7cX-180" value="&lt;font&gt;s&lt;/font&gt;" style="text;html=1;align=center;verticalAlign=middle;whiteSpace=wrap;rounded=0;fontSize=14;" vertex="1" parent="1">
          <mxGeometry x="145" y="420" width="60" height="30" as="geometry" />
        </mxCell>
      </root>
    </mxGraphModel>
  </diagram>
</mxfile>
